<?xml version="1.0" encoding="utf-8"?>
<!-- Generator: Adobe Illustrator 27.0.0, SVG Export Plug-In . SVG Version: 6.00 Build 0)  -->
<svg width="1em" height="1em" version="1.1" id="_x33_tone_x5F_Logo_White_00000165209008208037146800000014285613255641832837_" x="0px" y="0px" viewBox="0 0 259.2 259.2" style="enable-background:new 0 0 259.2 259.2;" xml:space="preserve">
<defs>
	<path id="SVGID_1_" class="st0" d="M248.2,80C227.6,30.8,188-0.7,117.3,0.1c-3.4,2.1-8.8,0.7-13.3,1.9c-8.2,2.5-16.4,5.1-24.7,7.6
		c-34.1,14.8-58.1,42-72.1,77c-1.9,7.9-3.8,15.8-5.7,23.8c-3.9,16.8,0,38.5,3.8,51.3c13.4,44.6,37.1,70.3,77.8,87.5
		c13.6,5.8,43,13.1,63.6,8.6c47.7-10.5,83.1-33.9,100.6-74.2c4.1-9.5,6.8-20,9.5-30.4C263.2,127.6,255.7,97.8,248.2,80z
		 M190.3,153.2c-8.9,21.5-26.5,35-51.2,40.9c-10.9,2.6-23.7-1.3-30.4-3.8c-27.3-10.3-56-43.7-39.8-83.7c6.9-17.1,21-31,37.9-38
		c5.7-1.3,11.4-2.5,17.1-3.8c42.7-0.5,61,22.3,69.2,57C195.5,131.6,193.6,145.3,190.3,153.2z M137.2,100c-4-1-6.7-2-12.3-1.9
		c-3.2,3.1-6.9,3.7-8.5,8.6c-1.7,2.2-2.8,8.8-0.9,11.4c0,0.6,0,1.3,0,1.9c1.6,0.6,0.9,0.2,1.9,1c13.9,0,4.7-5.5,10.4-11.4
		c1-0.8,0.2-0.4,1.9-1c1,0.8,0.2,0.4,1.9,1c0.7,3,2,9.5,0,12.4c0,0.6,0,1.3,0,1.9c-1.6,0.3-3.2,0.6-4.7,1c-0.4,8.3,0.5,9.7,5.7,12.4
		c0.1,5.7-0.2,10.1-1.9,13.3c-2.2-0.2-2.7-0.2-3.8-1c-1.3-1.9-1.1-6.2-0.9-9.5c-0.3-0.3-0.6-0.6-0.9-1c-3.2,0-6.3,0-9.5,0
		c-0.9,4.7-0.3,8.1,0,13.3c3,3.2,3.6,6.1,8.5,7.6c1.9,1.3,6.2,1.1,9.5,1c2-2,5.2-4.2,7.6-5.7c1.1-4.3,3.9-14.1,1.9-20.9
		c-0.2-0.7-2.7-3.1-2.8-3.8c-0.3-1.2,2.6-4.6,2.8-5.7C146,113.5,140.6,105,137.2,100z"/>
</defs>
<clipPath id="SVGID_00000142854990109872704450000014690455457661408389_">
	<use xlink:href="#SVGID_1_"  style="overflow:visible;"/>
</clipPath>
<g style="clip-path:url(#SVGID_00000142854990109872704450000014690455457661408389_);">
	<g>
		<path class="st2" d="M0,259.2C0,172.8,0,86.4,0,0c86.4,0,172.7,0,259.2,0c0,0.7,0,1.4,0,2.1c0,85.3,0,170.5,0,255.8
			c0,1.1-0.3,1.3-1.3,1.3C171.9,259.2,86,259.2,0,259.2z"/>
	</g>
</g>
</svg>
