<svg xmlns="http://www.w3.org/2000/svg" width="45.656" height="45.656" viewBox="0 0 45.656 45.656"><path id="Icon_material-library-add" data-name="Icon material-library-add" d="M7.566,12.131H3V44.09a4.579,4.579,0,0,0,4.566,4.566H39.524V44.09H7.566ZM44.09,3H16.7a4.579,4.579,0,0,0-4.566,4.566V34.959A4.579,4.579,0,0,0,16.7,39.524H44.09a4.579,4.579,0,0,0,4.566-4.566V7.566A4.579,4.579,0,0,0,44.09,3ZM41.807,23.545H32.676v9.131H28.111V23.545H18.979V18.979h9.131V9.848h4.566v9.131h9.131Z" transform="translate(-3 -3)" fill="#9189d1"/></svg>