<svg xmlns="http://www.w3.org/2000/svg" width="50.274" height="47.316" viewBox="0 0 50.274 47.316"><path id="Chart" d="M48.776,26.615H26.847l14.6,14.6a1.483,1.483,0,0,0,2.051.063A22.133,22.133,0,0,0,50.26,28.265a1.481,1.481,0,0,0-1.484-1.65Zm-1.463-5.988A22.232,22.232,0,0,0,26.689,0a1.487,1.487,0,0,0-1.553,1.5V22.18h20.68A1.486,1.486,0,0,0,47.313,20.627ZM20.7,26.615V4.686A1.481,1.481,0,0,0,19.052,3.2,22.163,22.163,0,0,0,.013,25.91a22.453,22.453,0,0,0,22.447,21.4,22.007,22.007,0,0,0,12.5-4.069A1.468,1.468,0,0,0,35.1,41.02Z" transform="translate(0 0)" fill="#fff"/></svg>