<svg xmlns="http://www.w3.org/2000/svg" width="23.53" height="41.606" viewBox="0 0 23.53 41.606"><path id="Dollar" d="M22.147,22.76c-5.247-1.364-6.934-2.774-6.934-4.97,0-2.519,2.335-4.276,6.241-4.276,4.114,0,5.64,1.965,5.779,4.854H32.34a9.214,9.214,0,0,0-7.42-8.807V4.5H17.986V9.493c-4.484.971-8.09,3.883-8.09,8.344,0,5.339,4.415,8,10.864,9.546,5.779,1.387,6.934,3.421,6.934,5.571,0,1.595-1.133,4.137-6.241,4.137-4.762,0-6.634-2.127-6.888-4.854H9.48c.277,5.062,4.068,7.905,8.506,8.853v5.016H24.92v-4.97c4.507-.855,8.09-3.467,8.09-8.206C33.01,26.366,27.394,24.124,22.147,22.76Z" transform="translate(-9.48 -4.5)" fill="#f7f7f7"/></svg>