<svg width="1em" height="1em" viewBox="0 0 24 24"><path fill="currentColor" d="m12 22l-.25-3h-.25q-3.55 0-6.025-2.475Q3 14.05 3 10.5q0-3.55 2.475-6.025Q7.95 2 11.5 2q1.775 0 3.312.662q1.538.663 2.701 1.825q1.162 1.163 1.824 2.7Q20 8.725 20 10.5q0 1.875-.612 3.6q-.613 1.725-1.675 3.2q-1.063 1.475-2.525 2.675Q13.725 21.175 12 22Zm2-3.65q1.775-1.5 2.887-3.512Q18 12.825 18 10.5q0-2.725-1.887-4.613Q14.225 4 11.5 4Q8.775 4 6.888 5.887Q5 7.775 5 10.5q0 2.725 1.888 4.613Q8.775 17 11.5 17H14Zm-2.525-2.375q.425 0 .725-.3t.3-.725q0-.425-.3-.725t-.725-.3q-.425 0-.725.3t-.3.725q0 .425.3.725t.725.3ZM10.75 12.8h1.5q0-.75.15-1.05q.15-.3.95-1.1q.45-.45.75-.975q.3-.525.3-1.125q0-1.275-.862-1.913Q12.675 6 11.5 6q-1.1 0-1.85.612Q8.9 7.225 8.6 8.1l1.4.55q.125-.425.475-.838q.35-.412 1.025-.412q.675 0 1.013.375q.337.375.337.825q0 .425-.25.762q-.25.338-.6.688q-.875.75-1.062 1.187q-.188.438-.188 1.563Zm.75-1.625Z"></path></svg>