<svg xmlns="http://www.w3.org/2000/svg" width="44.843" height="44.844" viewBox="0 0 44.843 44.844"><path id="Icon_awesome-music" data-name="Icon awesome-music" d="M44.842,2.8A2.8,2.8,0,0,0,41.2.132L13.173,8.408a2.8,2.8,0,0,0-1.962,2.671v22.9a12.116,12.116,0,0,0-2.8-.343C3.764,33.633,0,36.142,0,39.238s3.764,5.605,8.408,5.605,8.408-2.509,8.408-5.605V18.77L39.238,12.2V28.371a12.116,12.116,0,0,0-2.8-.343c-4.644,0-8.408,2.509-8.408,5.605s3.764,5.605,8.408,5.605,8.408-2.509,8.408-5.605V2.8Z" transform="translate(0 0.001)" fill="#fff"/></svg>