<svg xmlns="http://www.w3.org/2000/svg" xmlns:xlink="http://www.w3.org/1999/xlink" width="185.91" height="185.91" viewBox="0 0 185.91 185.91">
  <defs>
    <linearGradient id="linear-gradient" x1="0.5" x2="0.5" y2="1" gradientUnits="objectBoundingBox">
      <stop offset="0"/>
      <stop offset="1" stop-color="#545454"/>
    </linearGradient>
  </defs>
  <path id="Icon_ionic-ios-paper" data-name="Icon ionic-ios-paper" d="M37.339,17.676v143.9a6.275,6.275,0,0,1-6.257,6.257h0a6.275,6.275,0,0,1-6.257-6.257V31.977h-7.15a14.285,14.285,0,0,0-14.3,14.3V174.984a14.285,14.285,0,0,0,14.3,14.3h157.8a13.818,13.818,0,0,0,13.809-13.809V17.676a14.285,14.285,0,0,0-14.3-14.3L50.746,4.269C42.836,4.269,37.339,9.766,37.339,17.676Zm29.5,14.3h37.54a6.275,6.275,0,0,1,6.257,6.257h0a6.275,6.275,0,0,1-6.257,6.257H66.835a6.275,6.275,0,0,1-6.257-6.257h0A6.275,6.275,0,0,1,66.835,31.977Zm0,71.5h66.141a6.275,6.275,0,0,1,6.257,6.257h0a6.275,6.275,0,0,1-6.257,6.257H66.835a6.275,6.275,0,0,1-6.257-6.257h0A6.275,6.275,0,0,1,66.835,103.48Zm87.592,48.265H66.835a6.275,6.275,0,0,1-6.257-6.257h0a6.275,6.275,0,0,1,6.257-6.257h87.592a6.275,6.275,0,0,1,6.257,6.257h0A6.275,6.275,0,0,1,154.427,151.746Zm0-71.5H66.835a6.275,6.275,0,0,1-6.257-6.257h0a6.275,6.275,0,0,1,6.257-6.257h87.592a6.275,6.275,0,0,1,6.257,6.257h0A6.275,6.275,0,0,1,154.427,80.242Z" transform="translate(-3.375 -3.375)" fill="url(#linear-gradient)"/>
</svg>
