<svg xmlns="http://www.w3.org/2000/svg" xmlns:xlink="http://www.w3.org/1999/xlink" width="429.398" height="108.187" viewBox="0 0 429.398 108.187">
  <defs>
    <linearGradient id="linear-gradient" x1="0.5" x2="0.5" y2="1" gradientUnits="objectBoundingBox">
      <stop offset="0"/>
      <stop offset="1" stop-color="#545454"/>
    </linearGradient>
  </defs>
  <path id="path5069" d="M-383.412-61.383A54.093,54.093,0,0,0-437.5-7.289,54.093,54.093,0,0,0-383.412,46.8,54.093,54.093,0,0,0-329.318-7.289,54.093,54.093,0,0,0-383.412-61.383Zm0,79.337c-13.524,0-23.44-10.819-23.44-25.244s9.924-25.244,23.44-25.244,23.44,10.821,23.44,25.244S-369.888,17.954-383.412,17.954ZM-542.085-7.289c0-29.875-23.411-54.093-52.29-54.093s-52.29,24.218-52.29,54.093S-623.229,46.8-593.474,46.8c23.766,0,42.4-14.364,48.6-34.259h-31.474c-4.366,6.461-10.787,8.114-17.13,8.114-12.165,0-19.916-8.373-22.349-19.834h73.15a56.348,56.348,0,0,0,.587-8.114Zm-52.29-28.85c10.434,0,18.52,7.187,21,18.031h-42.038C-612.609-29.38-605.138-36.139-594.375-36.139ZM-698.956,45.9l-59.761-104.13h35.185L-698.956-10.9l24.576-47.332h35.185Zm209.161,0-59.761-104.13h35.185L-489.8-10.9l24.576-47.332h35.185Z" transform="translate(758.717 61.383)" fill="url(#linear-gradient)"/>
</svg>
